<svg xmlns="http://www.w3.org/2000/svg" width="641.027" height="150.323" viewBox="0 0 17560.87 4118.12" shape-rendering="geometricPrecision" image-rendering="optimizeQuality" fill-rule="evenodd" fill="#4d4d4d" xmlns:v="https://vecta.io/nano"><path d="M7032.4 618.7v2714.04L5051.42 618.7h-125v2966.16h135.6V865.88l1987.33 2718.98H7168V618.7h-135.6zm1968.26 3012.78c682.93 0 1192.12-508.48 1192.12-1190.7 0-682.2-509.2-1190.7-1192.12-1190.7-679.4 0-1192.1 504.25-1192.1 1190.7 0 682.22 512.72 1190.7 1192.1 1190.7zm0-131.36c-602.4 0-1053.68-452.7-1053.68-1059.35 0-610.18 448.45-1059.34 1053.68-1059.34 605.24 0 1053.7 452.7 1053.7 1059.34 0 606.65-448.45 1059.35-1053.7 1059.35zm1680.83-45.9l1464.73-2119.4v-38.13H10536v127.12h1394.8l-1465.42 2120.8v39.55h1710.48v-129.95H10681.5zm3049.5-2204.14c-390.54 0-735.2 230.23-893.37 562.16V486.64H12702v3098.23h135.6V2250.8c0-471.76 399.72-873.6 867.95-873.6 491.54 0 788.85 329.8 788.85 875.72v1331.95h135.6V2229.6c0-600.3-345.35-979.54-899.03-979.54h0zm3714.77 46.6l-17.66 598.17c-182.9-388.42-564.98-642.66-1044.5-642.66-665.97 0-1167.4 511.3-1167.4 1188.58 0 675.87 501.42 1188.6 1167.4 1188.6 479.54 0 860.9-254.24 1044.5-641.96l14.84 597.47h117.94V1296.7h-115.12zm-1055.1 2200.6c-591.1 0-1037.45-453.4-1037.45-1056.52 0-599.58 446.34-1056.5 1037.45-1056.5 597.48 0 1033.22 446.33 1033.22 1056.5s-435.74 1056.52-1033.22 1056.52h0z" fill-rule="nonzero"/><path d="M828.85 234.6h2491.63c318.63 0 578.63 260 578.63 578.63v2491.63c0 318.63-260 578.63-578.63 578.63H828.85c-318.63 0-578.63-260-578.63-578.63V813.24c0-318.63 260-578.63 578.63-578.63zM829.18 0h2490.96c456.05 0 829.18 373.13 829.18 829.18v2459.76c0 456.05-373.13 829.18-829.18 829.18H829.18C373.13 4118.12 0 3745 0 3288.94V829.18C0 373.13 373.13 0 829.18 0z"/><path d="M799.47 424.13v3512.9h421.97v-2863.7l1367.94 2021.76v-653.83L1221.44 424.13H799.47zm2128.4-243.05v3410.17h421.98V181.08h-421.98z" fill-rule="nonzero"/></svg>