<?xml version="1.0" standalone="no"?>
<!DOCTYPE svg PUBLIC "-//W3C//DTD SVG 20010904//EN"
 "http://www.w3.org/TR/2001/REC-SVG-20010904/DTD/svg10.dtd">
<svg version="1.0" xmlns="http://www.w3.org/2000/svg"
 width="700.000000pt" height="700.000000pt" viewBox="0 0 700.000000 700.000000"
 preserveAspectRatio="xMidYMid meet">
<metadata>
Created by potrace 1.11, written by Peter Selinger 2001-2013
</metadata>
<g transform="translate(0.000000,700.000000) scale(0.100000,-0.100000)"
fill="#000000" stroke="none">
<path d="M1400 6713 c-329 -53 -555 -165 -771 -384 -194 -196 -322 -455 -362
-734 -10 -71 -12 -515 -11 -2110 1 -1111 4 -2040 8 -2065 3 -25 11 -69 17 -97
6 -29 11 -56 11 -60 1 -17 59 -174 88 -239 70 -155 226 -351 370 -464 156
-122 322 -201 530 -253 l85 -21 2100 -3 c1354 -1 2121 2 2160 8 378 62 696
263 902 569 109 162 190 382 210 575 9 90 9 4061 -1 4140 -44 371 -265 728
-576 930 -166 108 -333 172 -535 204 -57 9 -4168 13 -4225 4z m3427 -366 c4
-5 7 -1186 8 -2625 l0 -2617 320 -1 c176 0 325 1 330 3 7 2 10 886 10 2624
l-1 2621 61 -6 c90 -9 199 -42 294 -88 280 -137 472 -418 499 -730 4 -46 6
-981 6 -2078 -2 -1832 -3 -2002 -19 -2075 -75 -357 -353 -635 -710 -710 -73
-16 -222 -17 -1762 -18 -926 0 -1686 3 -1690 7 -8 8 -11 4376 -3 4376 3 0 136
-194 295 -430 160 -236 337 -498 394 -582 57 -84 196 -290 309 -458 113 -168
233 -344 266 -393 34 -48 66 -95 71 -105 6 -9 12 -19 15 -22 11 -11 70 -101
70 -106 0 -4 13 -23 28 -43 16 -20 100 -142 187 -271 363 -538 486 -720 493
-724 4 -2 7 224 7 502 l-1 507 -154 228 c-85 125 -209 307 -275 405 -119 175
-285 419 -521 767 -68 99 -174 257 -238 350 -63 94 -174 258 -247 365 -153
226 -373 549 -567 836 l-136 201 -327 0 c-292 0 -328 -2 -331 -16 -2 -9 -4
-1225 -3 -2703 l0 -2688 -32 0 c-53 0 -171 28 -252 61 -312 124 -538 421 -568
744 -6 69 -9 3952 -3 4070 2 33 10 85 18 115 8 30 15 62 17 70 18 89 116 257
209 357 148 160 362 264 576 282 108 9 3348 7 3357 -2z"/>
</g>
</svg>
